<?xml version="1.0" encoding="UTF-8" standalone="no"?>
<!DOCTYPE svg PUBLIC "-//W3C//DTD SVG 1.1//EN"
 "http://www.w3.org/Graphics/SVG/1.1/DTD/svg11.dtd">
<!-- Generated by graphviz version 2.44.0 (20200408.0750)
 -->
<!-- Pages: 1 -->
<svg width="12965px" height="3001px"
 viewBox="0.00 0.00 12965.39 3000.80" xmlns="http://www.w3.org/2000/svg" xmlns:xlink="http://www.w3.org/1999/xlink">
<g id="graph0" class="graph" transform="scale(1.0 1.0) rotate(0.0) translate(4.0 2996.8)">
<polygon fill="white" stroke="transparent" points="-4,4 -4,-2996.8 12961.39,-2996.8 12961.39,4 -4,4"/>
<!-- L1 -->
<g id="node1" class="node">
<title>L1</title>
<ellipse fill="none" stroke="black" cx="8188.78" cy="-2974.8" rx="27" ry="18"/>
<text text-anchor="middle" x="8188.78" y="-2970.6" font-family="Times,serif" font-size="14.00">Top</text>
</g>
<!-- L2 -->
<g id="node2" class="node">
<title>L2</title>
<ellipse fill="none" stroke="black" cx="8188.78" cy="-2886" rx="53.19" ry="18"/>
<text text-anchor="middle" x="8188.78" y="-2881.8" font-family="Times,serif" font-size="14.00">[{a=Odd}]</text>
</g>
<!-- L1&#45;&gt;L2 -->
<g id="edge1" class="edge">
<title>L1&#45;&gt;L2</title>
<path fill="none" stroke="black" d="M8188.78,-2956.65C8188.78,-2944.52 8188.78,-2928.02 8188.78,-2914.12"/>
<polygon fill="black" stroke="black" points="8192.28,-2914.11 8188.78,-2904.11 8185.28,-2914.11 8192.28,-2914.11"/>
<text text-anchor="middle" x="8204.78" y="-2926.2" font-family="Times,serif" font-size="14.00">a := 1</text>
</g>
<!-- L3 -->
<g id="node3" class="node">
<title>L3</title>
<ellipse fill="none" stroke="black" cx="8188.78" cy="-2797.2" rx="88.08" ry="18"/>
<text text-anchor="middle" x="8188.78" y="-2793" font-family="Times,serif" font-size="14.00">[{a=Odd, b=Even}]</text>
</g>
<!-- L2&#45;&gt;L3 -->
<g id="edge2" class="edge">
<title>L2&#45;&gt;L3</title>
<path fill="none" stroke="black" d="M8188.78,-2867.85C8188.78,-2855.72 8188.78,-2839.22 8188.78,-2825.32"/>
<polygon fill="black" stroke="black" points="8192.28,-2825.31 8188.78,-2815.31 8185.28,-2825.31 8192.28,-2825.31"/>
<text text-anchor="middle" x="8205.18" y="-2837.4" font-family="Times,serif" font-size="14.00">b := 0</text>
</g>
<!-- L4 -->
<g id="node4" class="node">
<title>L4</title>
<ellipse fill="none" stroke="black" cx="8188.78" cy="-2708.4" rx="119.46" ry="18"/>
<text text-anchor="middle" x="8188.78" y="-2704.2" font-family="Times,serif" font-size="14.00">[{a=Odd, b=Even, c=Odd}]</text>
</g>
<!-- L3&#45;&gt;L4 -->
<g id="edge3" class="edge">
<title>L3&#45;&gt;L4</title>
<path fill="none" stroke="black" d="M8188.78,-2779.05C8188.78,-2766.92 8188.78,-2750.42 8188.78,-2736.52"/>
<polygon fill="black" stroke="black" points="8192.28,-2736.51 8188.78,-2726.51 8185.28,-2736.51 8192.28,-2736.51"/>
<text text-anchor="middle" x="8204.78" y="-2748.6" font-family="Times,serif" font-size="14.00">c := 1</text>
</g>
<!-- L5 -->
<g id="node5" class="node">
<title>L5</title>
<ellipse fill="none" stroke="black" cx="8188.78" cy="-2619.6" rx="154.35" ry="18"/>
<text text-anchor="middle" x="8188.78" y="-2615.4" font-family="Times,serif" font-size="14.00">[{a=Odd, b=Even, c=Odd, d=Even}]</text>
</g>
<!-- L4&#45;&gt;L5 -->
<g id="edge4" class="edge">
<title>L4&#45;&gt;L5</title>
<path fill="none" stroke="black" d="M8188.78,-2690.25C8188.78,-2678.12 8188.78,-2661.62 8188.78,-2647.72"/>
<polygon fill="black" stroke="black" points="8192.28,-2647.71 8188.78,-2637.71 8185.28,-2647.71 8192.28,-2647.71"/>
<text text-anchor="middle" x="8205.18" y="-2659.8" font-family="Times,serif" font-size="14.00">d := 0</text>
</g>
<!-- L7 -->
<g id="node6" class="node">
<title>L7</title>
<ellipse fill="none" stroke="black" cx="8188.78" cy="-2530.8" rx="191.03" ry="18"/>
<text text-anchor="middle" x="8188.78" y="-2526.6" font-family="Times,serif" font-size="14.00">[{a=Odd, b=Even, c=Odd, d=Even, w=Even}]</text>
</g>
<!-- L5&#45;&gt;L7 -->
<g id="edge5" class="edge">
<title>L5&#45;&gt;L7</title>
<path fill="none" stroke="black" d="M8188.78,-2601.45C8188.78,-2589.32 8188.78,-2572.82 8188.78,-2558.92"/>
<polygon fill="black" stroke="black" points="8192.28,-2558.91 8188.78,-2548.91 8185.28,-2558.91 8192.28,-2558.91"/>
<text text-anchor="middle" x="8206.73" y="-2571" font-family="Times,serif" font-size="14.00">w := 0</text>
</g>
<!-- L8 -->
<g id="node7" class="node">
<title>L8</title>
<ellipse fill="none" stroke="black" cx="8188.78" cy="-2442" rx="222.99" ry="18"/>
<text text-anchor="middle" x="8188.78" y="-2437.8" font-family="Times,serif" font-size="14.00">[{a=Odd, b=Even, c=Odd, d=Even, w=Even, x=Odd}]</text>
</g>
<!-- L7&#45;&gt;L8 -->
<g id="edge6" class="edge">
<title>L7&#45;&gt;L8</title>
<path fill="none" stroke="black" d="M8188.78,-2512.65C8188.78,-2500.52 8188.78,-2484.02 8188.78,-2470.12"/>
<polygon fill="black" stroke="black" points="8192.28,-2470.11 8188.78,-2460.11 8185.28,-2470.11 8192.28,-2470.11"/>
<text text-anchor="middle" x="8205.18" y="-2482.2" font-family="Times,serif" font-size="14.00">x := 1</text>
</g>
<!-- L9 -->
<g id="node8" class="node">
<title>L9</title>
<ellipse fill="none" stroke="black" cx="8188.78" cy="-2353.2" rx="254.95" ry="18"/>
<text text-anchor="middle" x="8188.78" y="-2349" font-family="Times,serif" font-size="14.00">[{a=Odd, b=Even, c=Odd, d=Even, w=Even, x=Odd, y=Odd}]</text>
</g>
<!-- L8&#45;&gt;L9 -->
<g id="edge7" class="edge">
<title>L8&#45;&gt;L9</title>
<path fill="none" stroke="black" d="M8188.78,-2423.85C8188.78,-2411.72 8188.78,-2395.22 8188.78,-2381.32"/>
<polygon fill="black" stroke="black" points="8192.28,-2381.31 8188.78,-2371.31 8185.28,-2381.31 8192.28,-2381.31"/>
<text text-anchor="middle" x="8205.18" y="-2393.4" font-family="Times,serif" font-size="14.00">y := 1</text>
</g>
<!-- L11 -->
<g id="node9" class="node">
<title>L11</title>
<ellipse fill="none" stroke="black" cx="8188.78" cy="-2264.4" rx="289.26" ry="18"/>
<text text-anchor="middle" x="8188.78" y="-2260.2" font-family="Times,serif" font-size="14.00">[{a=Odd, b=Even, c=Odd, d=Even, w=Even, x=Odd, y=Odd, z=Even}]</text>
</g>
<!-- L9&#45;&gt;L11 -->
<g id="edge8" class="edge">
<title>L9&#45;&gt;L11</title>
<path fill="none" stroke="black" d="M8188.78,-2335.05C8188.78,-2322.92 8188.78,-2306.42 8188.78,-2292.52"/>
<polygon fill="black" stroke="black" points="8192.28,-2292.51 8188.78,-2282.51 8185.28,-2292.51 8192.28,-2292.51"/>
<text text-anchor="middle" x="8204.78" y="-2304.6" font-family="Times,serif" font-size="14.00">z := 0</text>
</g>
<!-- L12 -->
<g id="node10" class="node">
<title>L12</title>
<ellipse fill="none" stroke="black" cx="8188.78" cy="-2175.6" rx="333.38" ry="18"/>
<text text-anchor="middle" x="8188.78" y="-2171.4" font-family="Times,serif" font-size="14.00">[{a=Odd, b=Even, c=Odd, d=Even, w=Even, x=Odd, y=Odd, z=Even, ww=Even}]</text>
</g>
<!-- L11&#45;&gt;L12 -->
<g id="edge9" class="edge">
<title>L11&#45;&gt;L12</title>
<path fill="none" stroke="black" d="M8188.78,-2246.25C8188.78,-2234.12 8188.78,-2217.62 8188.78,-2203.72"/>
<polygon fill="black" stroke="black" points="8192.28,-2203.71 8188.78,-2193.71 8185.28,-2203.71 8192.28,-2203.71"/>
<text text-anchor="middle" x="8211.78" y="-2215.8" font-family="Times,serif" font-size="14.00">ww := 0</text>
</g>
<!-- L13 -->
<g id="node11" class="node">
<title>L13</title>
<ellipse fill="none" stroke="black" cx="8188.78" cy="-2086.8" rx="372.93" ry="18"/>
<text text-anchor="middle" x="8188.78" y="-2082.6" font-family="Times,serif" font-size="14.00">[{a=Odd, b=Even, c=Odd, d=Even, w=Even, x=Odd, y=Odd, z=Even, ww=Even, xx=Even}]</text>
</g>
<!-- L12&#45;&gt;L13 -->
<g id="edge10" class="edge">
<title>L12&#45;&gt;L13</title>
<path fill="none" stroke="black" d="M8188.78,-2157.45C8188.78,-2145.32 8188.78,-2128.82 8188.78,-2114.92"/>
<polygon fill="black" stroke="black" points="8192.28,-2114.91 8188.78,-2104.91 8185.28,-2114.91 8192.28,-2114.91"/>
<text text-anchor="middle" x="8208.68" y="-2127" font-family="Times,serif" font-size="14.00">xx := 0</text>
</g>
<!-- L14 -->
<g id="node12" class="node">
<title>L14</title>
<ellipse fill="none" stroke="black" cx="8188.78" cy="-1998" rx="412.97" ry="18"/>
<text text-anchor="middle" x="8188.78" y="-1993.8" font-family="Times,serif" font-size="14.00">[{a=Odd, b=Even, c=Odd, d=Even, w=Even, x=Odd, y=Odd, z=Even, ww=Even, xx=Even, yy=Even}]</text>
</g>
<!-- L13&#45;&gt;L14 -->
<g id="edge11" class="edge">
<title>L13&#45;&gt;L14</title>
<path fill="none" stroke="black" d="M8188.78,-2068.65C8188.78,-2056.52 8188.78,-2040.02 8188.78,-2026.12"/>
<polygon fill="black" stroke="black" points="8192.28,-2026.11 8188.78,-2016.11 8185.28,-2026.11 8192.28,-2026.11"/>
<text text-anchor="middle" x="8208.68" y="-2038.2" font-family="Times,serif" font-size="14.00">yy := 0</text>
</g>
<!-- L15 -->
<g id="node13" class="node">
<title>L15</title>
<ellipse fill="none" stroke="black" cx="8188.78" cy="-1909.2" rx="4768.71" ry="18"/>
<text text-anchor="middle" x="8188.78" y="-1905" font-family="Times,serif" font-size="14.00">[{a=Odd, b=Even, c=Odd, d=Even, w=Even, x=Odd, y=Odd, z=Even, ww=Even, xx=Even, yy=Even, zz=Even}, {a=Even, b=Odd, c=Odd, d=Even, w=Even, x=Odd, y=Odd, z=Even, ww=Odd, xx=Even, yy=Even, zz=Even}, {a=Even, b=Odd, c=Even, d=Odd, w=Even, x=Odd, y=Odd, z=Even, ww=Odd, xx=Even, yy=Odd, zz=Even}, {a=Even, b=Odd, c=Odd, d=Odd, w=Even, x=Odd, y=Odd, z=Even, ww=Odd, xx=Even, yy=Even, zz=Odd}, {a=Even, b=Even, c=Odd, d=Odd, w=Even, x=Odd, y=Odd, z=Even, ww=Odd, xx=Odd, yy=Odd, zz=Even}, {a=Even, b=Even, c=Even, d=Odd, w=Even, x=Odd, y=Odd, z=Even, ww=Odd, xx=Odd, yy=Even, zz=Even}, {a=Odd, b=Odd, c=Odd, d=Even, w=Even, x=Odd, y=Odd, z=Even, ww=Even, xx=Odd, yy=Even, zz=Even}, {a=Odd, b=Odd, c=Even, d=Odd, w=Even, x=Odd, y=Odd, z=Even, ww=Even, xx=Odd, yy=Odd, zz=Even}, {a=Odd, b=Odd, c=Odd, d=Odd, w=Even, x=Odd, y=Odd, z=Even, ww=Even, xx=Odd, yy=Even, zz=Odd}, {a=Odd, b=Even, c=Even, d=Odd, w=Even, x=Odd, y=Odd, z=Even, ww=Even, xx=Even, yy=Odd, zz=Even}, {a=Odd, b=Even, c=Odd, d=Odd, w=Even, x=Odd, y=Odd, z=Even, ww=Even, xx=Even, yy=Even, zz=Odd}]</text>
</g>
<!-- L14&#45;&gt;L15 -->
<g id="edge12" class="edge">
<title>L14&#45;&gt;L15</title>
<path fill="none" stroke="black" d="M8188.78,-1979.85C8188.78,-1967.72 8188.78,-1951.22 8188.78,-1937.32"/>
<polygon fill="black" stroke="black" points="8192.28,-1937.31 8188.78,-1927.31 8185.28,-1937.31 8192.28,-1937.31"/>
<text text-anchor="middle" x="8207.89" y="-1949.4" font-family="Times,serif" font-size="14.00">zz := 0</text>
</g>
<!-- L16 -->
<g id="node14" class="node">
<title>L16</title>
<ellipse fill="none" stroke="black" cx="5553.78" cy="-1820.4" rx="2606.6" ry="18"/>
<text text-anchor="middle" x="5553.78" y="-1816.2" font-family="Times,serif" font-size="14.00">[{a=Odd, b=Even, c=Odd, d=Even, w=Even, x=Odd, y=Odd, z=Even, ww=Even, xx=Even, yy=Even, zz=Even}, {a=Odd, b=Odd, c=Odd, d=Even, w=Even, x=Odd, y=Odd, z=Even, ww=Even, xx=Odd, yy=Even, zz=Even}, {a=Odd, b=Odd, c=Even, d=Odd, w=Even, x=Odd, y=Odd, z=Even, ww=Even, xx=Odd, yy=Odd, zz=Even}, {a=Odd, b=Odd, c=Odd, d=Odd, w=Even, x=Odd, y=Odd, z=Even, ww=Even, xx=Odd, yy=Even, zz=Odd}, {a=Odd, b=Even, c=Even, d=Odd, w=Even, x=Odd, y=Odd, z=Even, ww=Even, xx=Even, yy=Odd, zz=Even}, {a=Odd, b=Even, c=Odd, d=Odd, w=Even, x=Odd, y=Odd, z=Even, ww=Even, xx=Even, yy=Even, zz=Odd}]</text>
</g>
<!-- L15&#45;&gt;L16 -->
<g id="edge13" class="edge">
<title>L15&#45;&gt;L16</title>
<path fill="none" stroke="black" d="M7675.65,-1891.3C7212.37,-1876.04 6534.14,-1853.69 6069.94,-1838.4"/>
<polygon fill="black" stroke="black" points="6069.81,-1834.9 6059.7,-1838.07 6069.58,-1841.89 6069.81,-1834.9"/>
<text text-anchor="middle" x="7151.75" y="-1860.6" font-family="Times,serif" font-size="14.00">assume w = ww</text>
</g>
<!-- L19 -->
<g id="node19" class="node">
<title>L19</title>
<ellipse fill="none" stroke="black" cx="5669.78" cy="-1554" rx="4768.71" ry="18"/>
<text text-anchor="middle" x="5669.78" y="-1549.8" font-family="Times,serif" font-size="14.00">[{a=Odd, b=Even, c=Odd, d=Even, w=Even, x=Odd, y=Odd, z=Even, ww=Even, xx=Even, yy=Even, zz=Even}, {a=Even, b=Odd, c=Odd, d=Even, w=Even, x=Odd, y=Odd, z=Even, ww=Odd, xx=Even, yy=Even, zz=Even}, {a=Even, b=Odd, c=Even, d=Odd, w=Even, x=Odd, y=Odd, z=Even, ww=Odd, xx=Even, yy=Odd, zz=Even}, {a=Even, b=Odd, c=Odd, d=Odd, w=Even, x=Odd, y=Odd, z=Even, ww=Odd, xx=Even, yy=Even, zz=Odd}, {a=Even, b=Even, c=Odd, d=Odd, w=Even, x=Odd, y=Odd, z=Even, ww=Odd, xx=Odd, yy=Odd, zz=Even}, {a=Even, b=Even, c=Even, d=Odd, w=Even, x=Odd, y=Odd, z=Even, ww=Odd, xx=Odd, yy=Even, zz=Even}, {a=Odd, b=Odd, c=Odd, d=Even, w=Even, x=Odd, y=Odd, z=Even, ww=Even, xx=Odd, yy=Even, zz=Even}, {a=Odd, b=Odd, c=Even, d=Odd, w=Even, x=Odd, y=Odd, z=Even, ww=Even, xx=Odd, yy=Odd, zz=Even}, {a=Odd, b=Odd, c=Odd, d=Odd, w=Even, x=Odd, y=Odd, z=Even, ww=Even, xx=Odd, yy=Even, zz=Odd}, {a=Odd, b=Even, c=Even, d=Odd, w=Even, x=Odd, y=Odd, z=Even, ww=Even, xx=Even, yy=Odd, zz=Even}, {a=Odd, b=Even, c=Odd, d=Odd, w=Even, x=Odd, y=Odd, z=Even, ww=Even, xx=Even, yy=Even, zz=Odd}]</text>
</g>
<!-- L15&#45;&gt;L19 -->
<g id="edge14" class="edge">
<title>L15&#45;&gt;L19</title>
<path fill="none" stroke="black" d="M8188.78,-1890.91C8188.78,-1873.39 8188.78,-1845.51 8188.78,-1821.4 8188.78,-1821.4 8188.78,-1821.4 8188.78,-1641.8 8188.78,-1606.31 7541.52,-1584.5 6903.19,-1571.61"/>
<polygon fill="black" stroke="black" points="6902.92,-1568.11 6892.85,-1571.41 6902.78,-1575.11 6902.92,-1568.11"/>
<text text-anchor="middle" x="8236.08" y="-1727.4" font-family="Times,serif" font-size="14.00">assume w != ww</text>
</g>
<!-- L17 -->
<g id="node15" class="node">
<title>L17</title>
<ellipse fill="none" stroke="black" cx="4581.78" cy="-1731.6" rx="1300.15" ry="18"/>
<text text-anchor="middle" x="4581.78" y="-1727.4" font-family="Times,serif" font-size="14.00">[{a=Odd, b=Odd, c=Odd, d=Even, w=Even, x=Odd, y=Odd, z=Even, ww=Even, xx=Odd, yy=Even, zz=Even}, {a=Odd, b=Odd, c=Even, d=Odd, w=Even, x=Odd, y=Odd, z=Even, ww=Even, xx=Odd, yy=Odd, zz=Even}, {a=Odd, b=Odd, c=Odd, d=Odd, w=Even, x=Odd, y=Odd, z=Even, ww=Even, xx=Odd, yy=Even, zz=Odd}]</text>
</g>
<!-- L16&#45;&gt;L17 -->
<g id="edge15" class="edge">
<title>L16&#45;&gt;L17</title>
<path fill="none" stroke="black" d="M5363.78,-1802.43C5195.55,-1787.41 4950.91,-1765.56 4780.2,-1750.32"/>
<polygon fill="black" stroke="black" points="4780.35,-1746.82 4770.08,-1749.42 4779.73,-1753.79 4780.35,-1746.82"/>
<text text-anchor="middle" x="5196.09" y="-1771.8" font-family="Times,serif" font-size="14.00">assume x = xx</text>
</g>
<!-- L16&#45;&gt;L19 -->
<g id="edge16" class="edge">
<title>L16&#45;&gt;L19</title>
<path fill="none" stroke="black" d="M5735.04,-1802.41C5803.41,-1791.93 5869.8,-1775.37 5890.78,-1749.6 5949.83,-1677.07 5811.61,-1608.82 5727.92,-1575.78"/>
<polygon fill="black" stroke="black" points="5729.09,-1572.48 5718.51,-1572.11 5726.56,-1579 5729.09,-1572.48"/>
<text text-anchor="middle" x="5943.42" y="-1683" font-family="Times,serif" font-size="14.00">assume x != xx</text>
</g>
<!-- L18 -->
<g id="node16" class="node">
<title>L18</title>
<ellipse fill="none" stroke="black" cx="4581.78" cy="-1642.8" rx="441.57" ry="18"/>
<text text-anchor="middle" x="4581.78" y="-1638.6" font-family="Times,serif" font-size="14.00">[{a=Odd, b=Odd, c=Even, d=Odd, w=Even, x=Odd, y=Odd, z=Even, ww=Even, xx=Odd, yy=Odd, zz=Even}]</text>
</g>
<!-- L17&#45;&gt;L18 -->
<g id="edge17" class="edge">
<title>L17&#45;&gt;L18</title>
<path fill="none" stroke="black" d="M4581.78,-1713.45C4581.78,-1701.32 4581.78,-1684.82 4581.78,-1670.92"/>
<polygon fill="black" stroke="black" points="4585.28,-1670.91 4581.78,-1660.91 4578.28,-1670.91 4585.28,-1670.91"/>
<text text-anchor="middle" x="4622.09" y="-1683" font-family="Times,serif" font-size="14.00">assume y = yy</text>
</g>
<!-- L17&#45;&gt;L19 -->
<g id="edge18" class="edge">
<title>L17&#45;&gt;L19</title>
<path fill="none" stroke="black" d="M4693.51,-1713.66C4784.8,-1699.73 4917.2,-1679.34 5032.78,-1660.8 5217.61,-1631.15 5432.33,-1595.17 5559.32,-1573.73"/>
<polygon fill="black" stroke="black" points="5560.16,-1577.13 5569.44,-1572.02 5559,-1570.23 5560.16,-1577.13"/>
<text text-anchor="middle" x="5290.42" y="-1638.6" font-family="Times,serif" font-size="14.00">assume y != yy</text>
</g>
<!-- L1000 -->
<g id="node17" class="node">
<title>L1000</title>
<ellipse fill="none" stroke="black" cx="441.78" cy="-1554" rx="441.57" ry="18"/>
<text text-anchor="middle" x="441.78" y="-1549.8" font-family="Times,serif" font-size="14.00">[{a=Odd, b=Odd, c=Even, d=Odd, w=Even, x=Odd, y=Odd, z=Even, ww=Even, xx=Odd, yy=Odd, zz=Even}]</text>
</g>
<!-- L18&#45;&gt;L1000 -->
<g id="edge19" class="edge">
<title>L18&#45;&gt;L1000</title>
<path fill="none" stroke="black" d="M4167.72,-1636.51C3485.05,-1627.22 2080.48,-1605.69 891.78,-1572 847.01,-1570.73 799.73,-1569.18 753.32,-1567.53"/>
<polygon fill="black" stroke="black" points="753.24,-1564.03 743.12,-1567.17 752.99,-1571.02 753.24,-1564.03"/>
<text text-anchor="middle" x="2350.91" y="-1594.2" font-family="Times,serif" font-size="14.00">assume z = zz</text>
</g>
<!-- L18&#45;&gt;L19 -->
<g id="edge20" class="edge">
<title>L18&#45;&gt;L19</title>
<path fill="none" stroke="black" d="M4772.86,-1626.56C4960.94,-1611.55 5248.06,-1588.65 5446.55,-1572.81"/>
<polygon fill="black" stroke="black" points="5446.83,-1576.3 5456.52,-1572.01 5446.28,-1569.32 5446.83,-1576.3"/>
<text text-anchor="middle" x="5265.24" y="-1594.2" font-family="Times,serif" font-size="14.00">assume z != zz</text>
</g>
<!-- L1001 -->
<g id="node18" class="node">
<title>L1001</title>
<ellipse fill="none" stroke="black" cx="441.78" cy="-1465.2" rx="441.57" ry="18"/>
<text text-anchor="middle" x="441.78" y="-1461" font-family="Times,serif" font-size="14.00">[{a=Odd, b=Odd, c=Even, d=Odd, w=Even, x=Odd, y=Odd, z=Even, ww=Even, xx=Odd, yy=Odd, zz=Even}]</text>
</g>
<!-- L1000&#45;&gt;L1001 -->
<g id="edge21" class="edge">
<title>L1000&#45;&gt;L1001</title>
<path fill="none" stroke="black" d="M441.78,-1535.85C441.78,-1523.72 441.78,-1507.22 441.78,-1493.32"/>
<polygon fill="black" stroke="black" points="445.28,-1493.31 441.78,-1483.31 438.28,-1493.31 445.28,-1493.31"/>
<text text-anchor="middle" x="563.64" y="-1505.4" font-family="Times,serif" font-size="14.00">assert [[ODD a, ODD b, EVEN c, ODD d]]</text>
</g>
<!-- L100 -->
<g id="node20" class="node">
<title>L100</title>
<ellipse fill="none" stroke="black" cx="4802.78" cy="-1411.2" rx="2174.38" ry="18"/>
<text text-anchor="middle" x="4802.78" y="-1407" font-family="Times,serif" font-size="14.00">[{a=Even, b=Odd, c=Odd, d=Even, w=Even, x=Odd, y=Odd, z=Even, ww=Odd, xx=Even, yy=Even, zz=Even}, {a=Even, b=Odd, c=Even, d=Odd, w=Even, x=Odd, y=Odd, z=Even, ww=Odd, xx=Even, yy=Odd, zz=Even}, {a=Even, b=Odd, c=Odd, d=Odd, w=Even, x=Odd, y=Odd, z=Even, ww=Odd, xx=Even, yy=Even, zz=Odd}, {a=Even, b=Even, c=Odd, d=Odd, w=Even, x=Odd, y=Odd, z=Even, ww=Odd, xx=Odd, yy=Odd, zz=Even}, {a=Even, b=Even, c=Even, d=Odd, w=Even, x=Odd, y=Odd, z=Even, ww=Odd, xx=Odd, yy=Even, zz=Even}]</text>
</g>
<!-- L19&#45;&gt;L100 -->
<g id="edge22" class="edge">
<title>L19&#45;&gt;L100</title>
<path fill="none" stroke="black" d="M5185.59,-1536.09C5012.82,-1525.67 4852.86,-1509.15 4821.78,-1483.2 4809.25,-1472.74 4804.5,-1455 4802.88,-1439.87"/>
<polygon fill="black" stroke="black" points="4806.35,-1439.2 4802.19,-1429.45 4799.36,-1439.66 4806.35,-1439.2"/>
<text text-anchor="middle" x="5001.19" y="-1505.4" font-family="Times,serif" font-size="14.00">assume a = 0</text>
</g>
<!-- L20 -->
<g id="node37" class="node">
<title>L20</title>
<ellipse fill="none" stroke="black" cx="7437.78" cy="-1465.2" rx="2606.6" ry="18"/>
<text text-anchor="middle" x="7437.78" y="-1461" font-family="Times,serif" font-size="14.00">[{a=Odd, b=Even, c=Odd, d=Even, w=Even, x=Odd, y=Odd, z=Even, ww=Even, xx=Even, yy=Even, zz=Even}, {a=Odd, b=Odd, c=Odd, d=Even, w=Even, x=Odd, y=Odd, z=Even, ww=Even, xx=Odd, yy=Even, zz=Even}, {a=Odd, b=Odd, c=Even, d=Odd, w=Even, x=Odd, y=Odd, z=Even, ww=Even, xx=Odd, yy=Odd, zz=Even}, {a=Odd, b=Odd, c=Odd, d=Odd, w=Even, x=Odd, y=Odd, z=Even, ww=Even, xx=Odd, yy=Even, zz=Odd}, {a=Odd, b=Even, c=Even, d=Odd, w=Even, x=Odd, y=Odd, z=Even, ww=Even, xx=Even, yy=Odd, zz=Even}, {a=Odd, b=Even, c=Odd, d=Odd, w=Even, x=Odd, y=Odd, z=Even, ww=Even, xx=Even, yy=Even, zz=Odd}]</text>
</g>
<!-- L19&#45;&gt;L20 -->
<g id="edge23" class="edge">
<title>L19&#45;&gt;L20</title>
<path fill="none" stroke="black" d="M6015.13,-1536.05C6323.59,-1520.9 6773.45,-1498.82 7084.35,-1483.55"/>
<polygon fill="black" stroke="black" points="7084.61,-1487.04 7094.42,-1483.06 7084.27,-1480.05 7084.61,-1487.04"/>
<text text-anchor="middle" x="6748.19" y="-1505.4" font-family="Times,serif" font-size="14.00">assume a = 1</text>
</g>
<!-- L30 -->
<g id="node21" class="node">
<title>L30</title>
<ellipse fill="none" stroke="black" cx="5148.78" cy="-786" rx="4336.49" ry="18"/>
<text text-anchor="middle" x="5148.78" y="-781.8" font-family="Times,serif" font-size="14.00">[{a=Odd, b=Odd, c=Odd, d=Even, w=Even, x=Odd, y=Odd, z=Even, ww=Odd, xx=Even, yy=Even, zz=Even}, {a=Odd, b=Odd, c=Even, d=Odd, w=Even, x=Odd, y=Odd, z=Even, ww=Odd, xx=Even, yy=Odd, zz=Even}, {a=Odd, b=Odd, c=Odd, d=Odd, w=Even, x=Odd, y=Odd, z=Even, ww=Odd, xx=Even, yy=Even, zz=Odd}, {a=Odd, b=Even, c=Odd, d=Odd, w=Even, x=Odd, y=Odd, z=Even, ww=Odd, xx=Odd, yy=Odd, zz=Even}, {a=Odd, b=Even, c=Even, d=Odd, w=Even, x=Odd, y=Odd, z=Even, ww=Odd, xx=Odd, yy=Even, zz=Even}, {a=Even, b=Odd, c=Odd, d=Even, w=Even, x=Odd, y=Odd, z=Even, ww=Even, xx=Even, yy=Even, zz=Even}, {a=Even, b=Odd, c=Even, d=Odd, w=Even, x=Odd, y=Odd, z=Even, ww=Even, xx=Even, yy=Odd, zz=Even}, {a=Even, b=Odd, c=Odd, d=Odd, w=Even, x=Odd, y=Odd, z=Even, ww=Even, xx=Even, yy=Even, zz=Odd}, {a=Even, b=Even, c=Odd, d=Odd, w=Even, x=Odd, y=Odd, z=Even, ww=Even, xx=Odd, yy=Odd, zz=Even}, {a=Even, b=Even, c=Even, d=Odd, w=Even, x=Odd, y=Odd, z=Even, ww=Even, xx=Odd, yy=Even, zz=Even}]</text>
</g>
<!-- L100&#45;&gt;L30 -->
<g id="edge24" class="edge">
<title>L100&#45;&gt;L30</title>
<path fill="none" stroke="black" d="M4802.78,-1393.13C4802.78,-1373.87 4802.78,-1341.58 4802.78,-1313.8 4802.78,-1313.8 4802.78,-1313.8 4802.78,-873.8 4802.78,-839.2 4868.7,-818.27 4942.98,-805.67"/>
<polygon fill="black" stroke="black" points="4943.73,-809.09 4953.03,-804.02 4942.6,-802.18 4943.73,-809.09"/>
<text text-anchor="middle" x="4818.78" y="-1111.8" font-family="Times,serif" font-size="14.00">a := 1</text>
</g>
<!-- L500 -->
<g id="node22" class="node">
<title>L500</title>
<ellipse fill="none" stroke="black" cx="5096.78" cy="-643.2" rx="2190.53" ry="18"/>
<text text-anchor="middle" x="5096.78" y="-639" font-family="Times,serif" font-size="14.00">[{a=Even, b=Odd, c=Odd, d=Even, w=Even, x=Odd, y=Odd, z=Even, ww=Even, xx=Even, yy=Even, zz=Even}, {a=Even, b=Odd, c=Even, d=Odd, w=Even, x=Odd, y=Odd, z=Even, ww=Even, xx=Even, yy=Odd, zz=Even}, {a=Even, b=Odd, c=Odd, d=Odd, w=Even, x=Odd, y=Odd, z=Even, ww=Even, xx=Even, yy=Even, zz=Odd}, {a=Even, b=Even, c=Odd, d=Odd, w=Even, x=Odd, y=Odd, z=Even, ww=Even, xx=Odd, yy=Odd, zz=Even}, {a=Even, b=Even, c=Even, d=Odd, w=Even, x=Odd, y=Odd, z=Even, ww=Even, xx=Odd, yy=Even, zz=Even}]</text>
</g>
<!-- L30&#45;&gt;L500 -->
<g id="edge25" class="edge">
<title>L30&#45;&gt;L500</title>
<path fill="none" stroke="black" d="M5142.41,-767.74C5133.52,-743.67 5117.31,-699.79 5106.8,-671.33"/>
<polygon fill="black" stroke="black" points="5109.96,-669.77 5103.21,-661.61 5103.39,-672.2 5109.96,-669.77"/>
<text text-anchor="middle" x="5179.19" y="-737.4" font-family="Times,serif" font-size="14.00">assume ww = 0</text>
</g>
<!-- L31 -->
<g id="node24" class="node">
<title>L31</title>
<ellipse fill="none" stroke="black" cx="7310.78" cy="-697.2" rx="2158.23" ry="18"/>
<text text-anchor="middle" x="7310.78" y="-693" font-family="Times,serif" font-size="14.00">[{a=Odd, b=Odd, c=Odd, d=Even, w=Even, x=Odd, y=Odd, z=Even, ww=Odd, xx=Even, yy=Even, zz=Even}, {a=Odd, b=Odd, c=Even, d=Odd, w=Even, x=Odd, y=Odd, z=Even, ww=Odd, xx=Even, yy=Odd, zz=Even}, {a=Odd, b=Odd, c=Odd, d=Odd, w=Even, x=Odd, y=Odd, z=Even, ww=Odd, xx=Even, yy=Even, zz=Odd}, {a=Odd, b=Even, c=Odd, d=Odd, w=Even, x=Odd, y=Odd, z=Even, ww=Odd, xx=Odd, yy=Odd, zz=Even}, {a=Odd, b=Even, c=Even, d=Odd, w=Even, x=Odd, y=Odd, z=Even, ww=Odd, xx=Odd, yy=Even, zz=Even}]</text>
</g>
<!-- L30&#45;&gt;L31 -->
<g id="edge26" class="edge">
<title>L30&#45;&gt;L31</title>
<path fill="none" stroke="black" d="M5570.13,-768.08C5949.64,-752.85 6504.77,-730.56 6885.49,-715.27"/>
<polygon fill="black" stroke="black" points="6885.73,-718.77 6895.58,-714.87 6885.45,-711.77 6885.73,-718.77"/>
<text text-anchor="middle" x="6466.19" y="-737.4" font-family="Times,serif" font-size="14.00">assume ww = 1</text>
</g>
<!-- L60 -->
<g id="node23" class="node">
<title>L60</title>
<ellipse fill="none" stroke="black" cx="7719.78" cy="-18" rx="4329.63" ry="18"/>
<text text-anchor="middle" x="7719.78" y="-13.8" font-family="Times,serif" font-size="14.00">[{a=Even, b=Odd, c=Odd, d=Even, w=Even, x=Odd, y=Odd, z=Even, ww=Odd, xx=Even, yy=Even, zz=Even}, {a=Even, b=Odd, c=Even, d=Odd, w=Even, x=Odd, y=Odd, z=Even, ww=Odd, xx=Even, yy=Odd, zz=Even}, {a=Even, b=Odd, c=Odd, d=Odd, w=Even, x=Odd, y=Odd, z=Even, ww=Odd, xx=Even, yy=Even, zz=Odd}, {a=Even, b=Even, c=Odd, d=Odd, w=Even, x=Odd, y=Odd, z=Even, ww=Odd, xx=Odd, yy=Odd, zz=Even}, {a=Even, b=Even, c=Even, d=Odd, w=Even, x=Odd, y=Odd, z=Even, ww=Odd, xx=Odd, yy=Even, zz=Even}, {a=Odd, b=Odd, c=Odd, d=Even, w=Even, x=Odd, y=Odd, z=Even, ww=Even, xx=Odd, yy=Even, zz=Even}, {a=Odd, b=Odd, c=Even, d=Odd, w=Even, x=Odd, y=Odd, z=Even, ww=Even, xx=Odd, yy=Odd, zz=Even}, {a=Odd, b=Odd, c=Odd, d=Odd, w=Even, x=Odd, y=Odd, z=Even, ww=Even, xx=Odd, yy=Even, zz=Odd}, {a=Odd, b=Even, c=Even, d=Odd, w=Even, x=Odd, y=Odd, z=Even, ww=Even, xx=Even, yy=Odd, zz=Even}, {a=Odd, b=Even, c=Odd, d=Odd, w=Even, x=Odd, y=Odd, z=Even, ww=Even, xx=Even, yy=Even, zz=Odd}]</text>
</g>
<!-- L500&#45;&gt;L60 -->
<g id="edge27" class="edge">
<title>L500&#45;&gt;L60</title>
<path fill="none" stroke="black" d="M5096.78,-625.13C5096.78,-605.87 5096.78,-573.58 5096.78,-545.8 5096.78,-545.8 5096.78,-545.8 5096.78,-105.8 5096.78,-69.62 5742.66,-47.98 6393.42,-35.35"/>
<polygon fill="black" stroke="black" points="6393.55,-38.85 6403.48,-35.15 6393.41,-31.85 6393.55,-38.85"/>
<text text-anchor="middle" x="5119.78" y="-343.8" font-family="Times,serif" font-size="14.00">ww := 1</text>
</g>
<!-- L60&#45;&gt;L15 -->
<g id="edge28" class="edge">
<title>L60&#45;&gt;L15</title>
<path fill="none" stroke="black" d="M9159.66,-34.98C9823.58,-47.34 10466.78,-68.86 10466.78,-105.8 10466.78,-1821.4 10466.78,-1821.4 10466.78,-1821.4 10466.78,-1855.32 9813.13,-1877.81 9206.1,-1891.38"/>
<polygon fill="black" stroke="black" points="9205.74,-1887.88 9195.82,-1891.61 9205.9,-1894.88 9205.74,-1887.88"/>
<text text-anchor="middle" x="10478.45" y="-959.4" font-family="Times,serif" font-size="14.00">skip</text>
</g>
<!-- L600 -->
<g id="node25" class="node">
<title>L600</title>
<ellipse fill="none" stroke="black" cx="6424.78" cy="-589.2" rx="1300.15" ry="18"/>
<text text-anchor="middle" x="6424.78" y="-585" font-family="Times,serif" font-size="14.00">[{a=Odd, b=Odd, c=Odd, d=Even, w=Even, x=Odd, y=Odd, z=Even, ww=Odd, xx=Even, yy=Even, zz=Even}, {a=Odd, b=Odd, c=Even, d=Odd, w=Even, x=Odd, y=Odd, z=Even, ww=Odd, xx=Even, yy=Odd, zz=Even}, {a=Odd, b=Odd, c=Odd, d=Odd, w=Even, x=Odd, y=Odd, z=Even, ww=Odd, xx=Even, yy=Even, zz=Odd}]</text>
</g>
<!-- L31&#45;&gt;L600 -->
<g id="edge29" class="edge">
<title>L31&#45;&gt;L600</title>
<path fill="none" stroke="black" d="M7310.73,-679.04C7309.65,-662.37 7305.15,-637.78 7288.78,-625.2 7277.7,-616.68 7199.95,-610.16 7095.26,-605.19"/>
<polygon fill="black" stroke="black" points="7095.19,-601.68 7085.04,-604.71 7094.87,-608.68 7095.19,-601.68"/>
<text text-anchor="middle" x="7348.09" y="-639" font-family="Times,serif" font-size="14.00">assume xx = 0</text>
</g>
<!-- L32 -->
<g id="node27" class="node">
<title>L32</title>
<ellipse fill="none" stroke="black" cx="8613.78" cy="-589.2" rx="870.86" ry="18"/>
<text text-anchor="middle" x="8613.78" y="-585" font-family="Times,serif" font-size="14.00">[{a=Odd, b=Even, c=Odd, d=Odd, w=Even, x=Odd, y=Odd, z=Even, ww=Odd, xx=Odd, yy=Odd, zz=Even}, {a=Odd, b=Even, c=Even, d=Odd, w=Even, x=Odd, y=Odd, z=Even, ww=Odd, xx=Odd, yy=Even, zz=Even}]</text>
</g>
<!-- L31&#45;&gt;L32 -->
<g id="edge30" class="edge">
<title>L31&#45;&gt;L32</title>
<path fill="none" stroke="black" d="M7519.05,-679.26C7760.69,-659.6 8157.04,-627.36 8400.72,-607.53"/>
<polygon fill="black" stroke="black" points="8401.08,-611.02 8410.76,-606.72 8400.51,-604.04 8401.08,-611.02"/>
<text text-anchor="middle" x="8195.09" y="-639" font-family="Times,serif" font-size="14.00">assume xx = 1</text>
</g>
<!-- L601 -->
<g id="node26" class="node">
<title>L601</title>
<ellipse fill="none" stroke="black" cx="6424.78" cy="-446.4" rx="1290.36" ry="18"/>
<text text-anchor="middle" x="6424.78" y="-442.2" font-family="Times,serif" font-size="14.00">[{a=Odd, b=Odd, c=Odd, d=Even, w=Even, x=Odd, y=Odd, z=Even, ww=Odd, xx=Odd, yy=Even, zz=Even}, {a=Odd, b=Odd, c=Even, d=Odd, w=Even, x=Odd, y=Odd, z=Even, ww=Odd, xx=Odd, yy=Odd, zz=Even}, {a=Odd, b=Odd, c=Odd, d=Odd, w=Even, x=Odd, y=Odd, z=Even, ww=Odd, xx=Odd, yy=Even, zz=Odd}]</text>
</g>
<!-- L600&#45;&gt;L601 -->
<g id="edge31" class="edge">
<title>L600&#45;&gt;L601</title>
<path fill="none" stroke="black" d="M6424.78,-570.94C6424.78,-546.97 6424.78,-503.38 6424.78,-474.9"/>
<polygon fill="black" stroke="black" points="6428.28,-474.81 6424.78,-464.81 6421.28,-474.81 6428.28,-474.81"/>
<text text-anchor="middle" x="6444.68" y="-540.6" font-family="Times,serif" font-size="14.00">xx := 1</text>
</g>
<!-- L601&#45;&gt;L60 -->
<g id="edge32" class="edge">
<title>L601&#45;&gt;L60</title>
<path fill="none" stroke="black" d="M6645.84,-428.64C6738.35,-415.32 6824.78,-391.5 6824.78,-349 6824.78,-349 6824.78,-349 6824.78,-105.8 6824.78,-70.51 6936.44,-49.32 7080.88,-36.67"/>
<polygon fill="black" stroke="black" points="7081.23,-40.16 7090.89,-35.82 7080.63,-33.18 7081.23,-40.16"/>
<text text-anchor="middle" x="6847.78" y="-245.4" font-family="Times,serif" font-size="14.00">ww := 0</text>
</g>
<!-- L700 -->
<g id="node28" class="node">
<title>L700</title>
<ellipse fill="none" stroke="black" cx="7737.78" cy="-500.4" rx="445" ry="18"/>
<text text-anchor="middle" x="7737.78" y="-496.2" font-family="Times,serif" font-size="14.00">[{a=Odd, b=Even, c=Even, d=Odd, w=Even, x=Odd, y=Odd, z=Even, ww=Odd, xx=Odd, yy=Even, zz=Even}]</text>
</g>
<!-- L32&#45;&gt;L700 -->
<g id="edge33" class="edge">
<title>L32&#45;&gt;L700</title>
<path fill="none" stroke="black" d="M8445.4,-571.52C8290.75,-556.19 8062.71,-533.6 7907.61,-518.23"/>
<polygon fill="black" stroke="black" points="7907.8,-514.73 7897.5,-517.23 7907.11,-521.7 7907.8,-514.73"/>
<text text-anchor="middle" x="8294.09" y="-540.6" font-family="Times,serif" font-size="14.00">assume yy = 0</text>
</g>
<!-- L33 -->
<g id="node31" class="node">
<title>L33</title>
<ellipse fill="none" stroke="black" cx="8639.78" cy="-500.4" rx="438.64" ry="18"/>
<text text-anchor="middle" x="8639.78" y="-496.2" font-family="Times,serif" font-size="14.00">[{a=Odd, b=Even, c=Odd, d=Odd, w=Even, x=Odd, y=Odd, z=Even, ww=Odd, xx=Odd, yy=Odd, zz=Even}]</text>
</g>
<!-- L32&#45;&gt;L33 -->
<g id="edge34" class="edge">
<title>L32&#45;&gt;L33</title>
<path fill="none" stroke="black" d="M8618.92,-571.05C8622.59,-558.81 8627.59,-542.09 8631.78,-528.11"/>
<polygon fill="black" stroke="black" points="8635.14,-529.1 8634.66,-518.51 8628.44,-527.09 8635.14,-529.1"/>
<text text-anchor="middle" x="8669.09" y="-540.6" font-family="Times,serif" font-size="14.00">assume yy = 1</text>
</g>
<!-- L701 -->
<g id="node29" class="node">
<title>L701</title>
<ellipse fill="none" stroke="black" cx="7719.78" cy="-392.4" rx="441.57" ry="18"/>
<text text-anchor="middle" x="7719.78" y="-388.2" font-family="Times,serif" font-size="14.00">[{a=Odd, b=Even, c=Even, d=Odd, w=Even, x=Odd, y=Odd, z=Even, ww=Odd, xx=Odd, yy=Odd, zz=Even}]</text>
</g>
<!-- L700&#45;&gt;L701 -->
<g id="edge35" class="edge">
<title>L700&#45;&gt;L701</title>
<path fill="none" stroke="black" d="M7734.89,-482.37C7732.07,-465.78 7727.74,-440.28 7724.44,-420.83"/>
<polygon fill="black" stroke="black" points="7727.85,-420.01 7722.73,-410.74 7720.95,-421.19 7727.85,-420.01"/>
<text text-anchor="middle" x="7750.68" y="-442.2" font-family="Times,serif" font-size="14.00">yy := 1</text>
</g>
<!-- L702 -->
<g id="node30" class="node">
<title>L702</title>
<ellipse fill="none" stroke="black" cx="7719.78" cy="-249.6" rx="445" ry="18"/>
<text text-anchor="middle" x="7719.78" y="-245.4" font-family="Times,serif" font-size="14.00">[{a=Odd, b=Even, c=Even, d=Odd, w=Even, x=Odd, y=Odd, z=Even, ww=Odd, xx=Even, yy=Odd, zz=Even}]</text>
</g>
<!-- L701&#45;&gt;L702 -->
<g id="edge36" class="edge">
<title>L701&#45;&gt;L702</title>
<path fill="none" stroke="black" d="M7719.78,-374.14C7719.78,-350.17 7719.78,-306.58 7719.78,-278.1"/>
<polygon fill="black" stroke="black" points="7723.28,-278.01 7719.78,-268.01 7716.28,-278.01 7723.28,-278.01"/>
<text text-anchor="middle" x="7739.68" y="-343.8" font-family="Times,serif" font-size="14.00">xx := 0</text>
</g>
<!-- L702&#45;&gt;L60 -->
<g id="edge37" class="edge">
<title>L702&#45;&gt;L60</title>
<path fill="none" stroke="black" d="M7719.78,-231.34C7719.78,-191.77 7719.78,-94.23 7719.78,-46.37"/>
<polygon fill="black" stroke="black" points="7723.28,-46.14 7719.78,-36.14 7716.28,-46.14 7723.28,-46.14"/>
<text text-anchor="middle" x="7742.78" y="-147" font-family="Times,serif" font-size="14.00">ww := 0</text>
</g>
<!-- L800 -->
<g id="node32" class="node">
<title>L800</title>
<ellipse fill="none" stroke="black" cx="8617.78" cy="-392.4" rx="438.64" ry="18"/>
<text text-anchor="middle" x="8617.78" y="-388.2" font-family="Times,serif" font-size="14.00">[{a=Odd, b=Even, c=Odd, d=Odd, w=Even, x=Odd, y=Odd, z=Even, ww=Odd, xx=Odd, yy=Odd, zz=Even}]</text>
</g>
<!-- L33&#45;&gt;L800 -->
<g id="edge38" class="edge">
<title>L33&#45;&gt;L800</title>
<path fill="none" stroke="black" d="M8636.25,-482.37C8632.79,-465.7 8627.46,-440.05 8623.42,-420.56"/>
<polygon fill="black" stroke="black" points="8626.84,-419.82 8621.38,-410.74 8619.99,-421.24 8626.84,-419.82"/>
<text text-anchor="middle" x="8671.3" y="-442.2" font-family="Times,serif" font-size="14.00">assume zz = 0</text>
</g>
<!-- L1002 -->
<g id="node36" class="node">
<title>L1002</title>
<ellipse fill="none" stroke="black" cx="9512.78" cy="-392.4" rx="438.64" ry="18"/>
<text text-anchor="middle" x="9512.78" y="-388.2" font-family="Times,serif" font-size="14.00">[{a=Odd, b=Odd, c=Odd, d=Odd, w=Even, x=Odd, y=Odd, z=Even, ww=Even, xx=Odd, yy=Even, zz=Odd}]</text>
</g>
<!-- L33&#45;&gt;L1002 -->
<g id="edge39" class="edge">
<title>L33&#45;&gt;L1002</title>
<path fill="none" stroke="black" d="M8772.85,-483.24C8933.8,-463.7 9203.68,-430.93 9369.2,-410.83"/>
<polygon fill="black" stroke="black" points="9369.96,-414.27 9379.46,-409.59 9369.11,-407.32 9369.96,-414.27"/>
<text text-anchor="middle" x="9244.3" y="-442.2" font-family="Times,serif" font-size="14.00">assume zz = 1</text>
</g>
<!-- L801 -->
<g id="node33" class="node">
<title>L801</title>
<ellipse fill="none" stroke="black" cx="8376.78" cy="-303.6" rx="435.21" ry="18"/>
<text text-anchor="middle" x="8376.78" y="-299.4" font-family="Times,serif" font-size="14.00">[{a=Odd, b=Even, c=Odd, d=Odd, w=Even, x=Odd, y=Odd, z=Even, ww=Odd, xx=Odd, yy=Odd, zz=Odd}]</text>
</g>
<!-- L800&#45;&gt;L801 -->
<g id="edge40" class="edge">
<title>L800&#45;&gt;L801</title>
<path fill="none" stroke="black" d="M8570.74,-374.46C8531.35,-360.27 8475.01,-339.98 8433.2,-324.92"/>
<polygon fill="black" stroke="black" points="8434.3,-321.59 8423.7,-321.5 8431.93,-328.18 8434.3,-321.59"/>
<text text-anchor="middle" x="8537.89" y="-343.8" font-family="Times,serif" font-size="14.00">zz := 1</text>
</g>
<!-- L802 -->
<g id="node34" class="node">
<title>L802</title>
<ellipse fill="none" stroke="black" cx="8310.78" cy="-195.6" rx="438.64" ry="18"/>
<text text-anchor="middle" x="8310.78" y="-191.4" font-family="Times,serif" font-size="14.00">[{a=Odd, b=Even, c=Odd, d=Odd, w=Even, x=Odd, y=Odd, z=Even, ww=Odd, xx=Odd, yy=Even, zz=Odd}]</text>
</g>
<!-- L801&#45;&gt;L802 -->
<g id="edge41" class="edge">
<title>L801&#45;&gt;L802</title>
<path fill="none" stroke="black" d="M8366.18,-285.57C8355.61,-268.59 8339.24,-242.3 8327.03,-222.69"/>
<polygon fill="black" stroke="black" points="8329.84,-220.58 8321.58,-213.94 8323.9,-224.28 8329.84,-220.58"/>
<text text-anchor="middle" x="8372.68" y="-245.4" font-family="Times,serif" font-size="14.00">yy := 0</text>
</g>
<!-- L803 -->
<g id="node35" class="node">
<title>L803</title>
<ellipse fill="none" stroke="black" cx="8196.78" cy="-106.8" rx="441.57" ry="18"/>
<text text-anchor="middle" x="8196.78" y="-102.6" font-family="Times,serif" font-size="14.00">[{a=Odd, b=Even, c=Odd, d=Odd, w=Even, x=Odd, y=Odd, z=Even, ww=Odd, xx=Even, yy=Even, zz=Odd}]</text>
</g>
<!-- L802&#45;&gt;L803 -->
<g id="edge42" class="edge">
<title>L802&#45;&gt;L803</title>
<path fill="none" stroke="black" d="M8288.26,-177.45C8270.85,-164.2 8246.57,-145.71 8227.4,-131.11"/>
<polygon fill="black" stroke="black" points="8229.34,-128.19 8219.26,-124.91 8225.1,-133.76 8229.34,-128.19"/>
<text text-anchor="middle" x="8283.68" y="-147" font-family="Times,serif" font-size="14.00">xx := 0</text>
</g>
<!-- L803&#45;&gt;L60 -->
<g id="edge43" class="edge">
<title>L803&#45;&gt;L60</title>
<path fill="none" stroke="black" d="M8105.38,-89.17C8024.79,-74.5 7907.45,-53.15 7823.4,-37.86"/>
<polygon fill="black" stroke="black" points="7823.79,-34.37 7813.32,-36.02 7822.54,-41.26 7823.79,-34.37"/>
<text text-anchor="middle" x="8023.78" y="-58.2" font-family="Times,serif" font-size="14.00">ww := 0</text>
</g>
<!-- L200 -->
<g id="node38" class="node">
<title>L200</title>
<ellipse fill="none" stroke="black" cx="6149.78" cy="-1357.2" rx="1319.23" ry="18"/>
<text text-anchor="middle" x="6149.78" y="-1353" font-family="Times,serif" font-size="14.00">[{a=Odd, b=Even, c=Odd, d=Even, w=Even, x=Odd, y=Odd, z=Even, ww=Even, xx=Even, yy=Even, zz=Even}, {a=Odd, b=Even, c=Even, d=Odd, w=Even, x=Odd, y=Odd, z=Even, ww=Even, xx=Even, yy=Odd, zz=Even}, {a=Odd, b=Even, c=Odd, d=Odd, w=Even, x=Odd, y=Odd, z=Even, ww=Even, xx=Even, yy=Even, zz=Odd}]</text>
</g>
<!-- L20&#45;&gt;L200 -->
<g id="edge44" class="edge">
<title>L20&#45;&gt;L200</title>
<path fill="none" stroke="black" d="M7348.98,-1447.18C7258.11,-1430.49 7112.65,-1405.78 6985.78,-1393.2 6903.57,-1385.05 6816.62,-1378.79 6731.11,-1373.99"/>
<polygon fill="black" stroke="black" points="6731.13,-1370.49 6720.96,-1373.43 6730.75,-1377.48 6731.13,-1370.49"/>
<text text-anchor="middle" x="7279.59" y="-1407" font-family="Times,serif" font-size="14.00">assume b = 0</text>
</g>
<!-- L21 -->
<g id="node40" class="node">
<title>L21</title>
<ellipse fill="none" stroke="black" cx="8786.78" cy="-1357.2" rx="1300.15" ry="18"/>
<text text-anchor="middle" x="8786.78" y="-1353" font-family="Times,serif" font-size="14.00">[{a=Odd, b=Odd, c=Odd, d=Even, w=Even, x=Odd, y=Odd, z=Even, ww=Even, xx=Odd, yy=Even, zz=Even}, {a=Odd, b=Odd, c=Even, d=Odd, w=Even, x=Odd, y=Odd, z=Even, ww=Even, xx=Odd, yy=Odd, zz=Even}, {a=Odd, b=Odd, c=Odd, d=Odd, w=Even, x=Odd, y=Odd, z=Even, ww=Even, xx=Odd, yy=Even, zz=Odd}]</text>
</g>
<!-- L20&#45;&gt;L21 -->
<g id="edge45" class="edge">
<title>L20&#45;&gt;L21</title>
<path fill="none" stroke="black" d="M7653.4,-1447.26C7902.6,-1427.68 8310.71,-1395.61 8563.23,-1375.77"/>
<polygon fill="black" stroke="black" points="8563.57,-1379.25 8573.27,-1374.98 8563.02,-1372.27 8563.57,-1379.25"/>
<text text-anchor="middle" x="8348.59" y="-1407" font-family="Times,serif" font-size="14.00">assume b = 1</text>
</g>
<!-- L201 -->
<g id="node39" class="node">
<title>L201</title>
<ellipse fill="none" stroke="black" cx="6133.78" cy="-1214.4" rx="1309.94" ry="18"/>
<text text-anchor="middle" x="6133.78" y="-1210.2" font-family="Times,serif" font-size="14.00">[{a=Odd, b=Odd, c=Odd, d=Even, w=Even, x=Odd, y=Odd, z=Even, ww=Even, xx=Even, yy=Even, zz=Even}, {a=Odd, b=Odd, c=Even, d=Odd, w=Even, x=Odd, y=Odd, z=Even, ww=Even, xx=Even, yy=Odd, zz=Even}, {a=Odd, b=Odd, c=Odd, d=Odd, w=Even, x=Odd, y=Odd, z=Even, ww=Even, xx=Even, yy=Even, zz=Odd}]</text>
</g>
<!-- L200&#45;&gt;L201 -->
<g id="edge46" class="edge">
<title>L200&#45;&gt;L201</title>
<path fill="none" stroke="black" d="M6147.82,-1338.94C6145.1,-1314.97 6140.14,-1271.38 6136.91,-1242.9"/>
<polygon fill="black" stroke="black" points="6140.37,-1242.35 6135.76,-1232.81 6133.41,-1243.14 6140.37,-1242.35"/>
<text text-anchor="middle" x="6161.18" y="-1308.6" font-family="Times,serif" font-size="14.00">b := 1</text>
</g>
<!-- L201&#45;&gt;L30 -->
<g id="edge47" class="edge">
<title>L201&#45;&gt;L30</title>
<path fill="none" stroke="black" d="M5862.07,-1196.76C5686.19,-1182.18 5489.78,-1156.96 5489.78,-1117 5489.78,-1117 5489.78,-1117 5489.78,-873.8 5489.78,-839.31 5423.43,-818.35 5349.26,-805.71"/>
<polygon fill="black" stroke="black" points="5349.66,-802.23 5339.22,-804.05 5348.52,-809.13 5349.66,-802.23"/>
<text text-anchor="middle" x="5505.78" y="-1013.4" font-family="Times,serif" font-size="14.00">a := 0</text>
</g>
<!-- L300 -->
<g id="node41" class="node">
<title>L300</title>
<ellipse fill="none" stroke="black" cx="8005.78" cy="-1268.4" rx="441.57" ry="18"/>
<text text-anchor="middle" x="8005.78" y="-1264.2" font-family="Times,serif" font-size="14.00">[{a=Odd, b=Odd, c=Even, d=Odd, w=Even, x=Odd, y=Odd, z=Even, ww=Even, xx=Odd, yy=Odd, zz=Even}]</text>
</g>
<!-- L21&#45;&gt;L300 -->
<g id="edge48" class="edge">
<title>L21&#45;&gt;L300</title>
<path fill="none" stroke="black" d="M8634.81,-1339.31C8498.01,-1324.11 8297.89,-1301.87 8160.31,-1286.57"/>
<polygon fill="black" stroke="black" points="8160.43,-1283.07 8150.1,-1285.44 8159.65,-1290.02 8160.43,-1283.07"/>
<text text-anchor="middle" x="8502.19" y="-1308.6" font-family="Times,serif" font-size="14.00">assume c = 0</text>
</g>
<!-- L22 -->
<g id="node44" class="node">
<title>L22</title>
<ellipse fill="none" stroke="black" cx="9512.78" cy="-1268.4" rx="870.86" ry="18"/>
<text text-anchor="middle" x="9512.78" y="-1264.2" font-family="Times,serif" font-size="14.00">[{a=Odd, b=Odd, c=Odd, d=Even, w=Even, x=Odd, y=Odd, z=Even, ww=Even, xx=Odd, yy=Even, zz=Even}, {a=Odd, b=Odd, c=Odd, d=Odd, w=Even, x=Odd, y=Odd, z=Even, ww=Even, xx=Odd, yy=Even, zz=Odd}]</text>
</g>
<!-- L21&#45;&gt;L22 -->
<g id="edge49" class="edge">
<title>L21&#45;&gt;L22</title>
<path fill="none" stroke="black" d="M8928.49,-1339.26C9053.34,-1324.33 9234.67,-1302.65 9362.13,-1287.41"/>
<polygon fill="black" stroke="black" points="9362.85,-1290.85 9372.36,-1286.19 9362.02,-1283.9 9362.85,-1290.85"/>
<text text-anchor="middle" x="9251.19" y="-1308.6" font-family="Times,serif" font-size="14.00">assume c = 1</text>
</g>
<!-- L301 -->
<g id="node42" class="node">
<title>L301</title>
<ellipse fill="none" stroke="black" cx="7135.78" cy="-1160.4" rx="438.64" ry="18"/>
<text text-anchor="middle" x="7135.78" y="-1156.2" font-family="Times,serif" font-size="14.00">[{a=Odd, b=Odd, c=Odd, d=Odd, w=Even, x=Odd, y=Odd, z=Even, ww=Even, xx=Odd, yy=Odd, zz=Even}]</text>
</g>
<!-- L300&#45;&gt;L301 -->
<g id="edge50" class="edge">
<title>L300&#45;&gt;L301</title>
<path fill="none" stroke="black" d="M7883.68,-1251.09C7771.68,-1236.28 7601.16,-1214.11 7452.78,-1196.4 7401.63,-1190.29 7345.78,-1184 7295.41,-1178.47"/>
<polygon fill="black" stroke="black" points="7295.73,-1174.98 7285.41,-1177.37 7294.97,-1181.94 7295.73,-1174.98"/>
<text text-anchor="middle" x="7754.78" y="-1210.2" font-family="Times,serif" font-size="14.00">c := 1</text>
</g>
<!-- L302 -->
<g id="node43" class="node">
<title>L302</title>
<ellipse fill="none" stroke="black" cx="6309.78" cy="-1017.6" rx="441.57" ry="18"/>
<text text-anchor="middle" x="6309.78" y="-1013.4" font-family="Times,serif" font-size="14.00">[{a=Odd, b=Even, c=Odd, d=Odd, w=Even, x=Odd, y=Odd, z=Even, ww=Even, xx=Odd, yy=Odd, zz=Even}]</text>
</g>
<!-- L301&#45;&gt;L302 -->
<g id="edge51" class="edge">
<title>L301&#45;&gt;L302</title>
<path fill="none" stroke="black" d="M7038.6,-1142.83C6883,-1116.31 6579.06,-1064.5 6417.21,-1036.91"/>
<polygon fill="black" stroke="black" points="6417.68,-1033.44 6407.23,-1035.21 6416.5,-1040.34 6417.68,-1033.44"/>
<text text-anchor="middle" x="6943.18" y="-1111.8" font-family="Times,serif" font-size="14.00">b := 0</text>
</g>
<!-- L302&#45;&gt;L30 -->
<g id="edge52" class="edge">
<title>L302&#45;&gt;L30</title>
<path fill="none" stroke="black" d="M6251.7,-999.63C6119.92,-961.78 5787.65,-870.02 5503.78,-822 5464.01,-815.27 5421.5,-809.7 5380.22,-805.14"/>
<polygon fill="black" stroke="black" points="5380.35,-801.63 5370.03,-804.03 5379.59,-808.59 5380.35,-801.63"/>
<text text-anchor="middle" x="5996.78" y="-915" font-family="Times,serif" font-size="14.00">a := 0</text>
</g>
<!-- L22&#45;&gt;L1002 -->
<g id="edge54" class="edge">
<title>L22&#45;&gt;L1002</title>
<path fill="none" stroke="black" d="M9512.78,-1250.14C9512.78,-1229.16 9512.78,-1192.68 9512.78,-1161.4 9512.78,-1161.4 9512.78,-1161.4 9512.78,-499.4 9512.78,-472.64 9512.78,-442.07 9512.78,-420.66"/>
<polygon fill="black" stroke="black" points="9516.28,-420.66 9512.78,-410.66 9509.28,-420.66 9516.28,-420.66"/>
<text text-anchor="middle" x="9549.59" y="-826.2" font-family="Times,serif" font-size="14.00">assume d = 1</text>
</g>
<!-- L400 -->
<g id="node45" class="node">
<title>L400</title>
<ellipse fill="none" stroke="black" cx="9985.78" cy="-1160.4" rx="445" ry="18"/>
<text text-anchor="middle" x="9985.78" y="-1156.2" font-family="Times,serif" font-size="14.00">[{a=Odd, b=Odd, c=Odd, d=Even, w=Even, x=Odd, y=Odd, z=Even, ww=Even, xx=Odd, yy=Even, zz=Even}]</text>
</g>
<!-- L22&#45;&gt;L400 -->
<g id="edge53" class="edge">
<title>L22&#45;&gt;L400</title>
<path fill="none" stroke="black" d="M9588.52,-1250.43C9673.92,-1231.29 9812.43,-1200.25 9901.28,-1180.34"/>
<polygon fill="black" stroke="black" points="9902.07,-1183.75 9911.06,-1178.15 9900.54,-1176.92 9902.07,-1183.75"/>
<text text-anchor="middle" x="9855.59" y="-1210.2" font-family="Times,serif" font-size="14.00">assume d = 0</text>
</g>
<!-- L401 -->
<g id="node46" class="node">
<title>L401</title>
<ellipse fill="none" stroke="black" cx="9985.78" cy="-1071.6" rx="441.57" ry="18"/>
<text text-anchor="middle" x="9985.78" y="-1067.4" font-family="Times,serif" font-size="14.00">[{a=Odd, b=Odd, c=Odd, d=Odd, w=Even, x=Odd, y=Odd, z=Even, ww=Even, xx=Odd, yy=Even, zz=Even}]</text>
</g>
<!-- L400&#45;&gt;L401 -->
<g id="edge55" class="edge">
<title>L400&#45;&gt;L401</title>
<path fill="none" stroke="black" d="M9985.78,-1142.25C9985.78,-1130.12 9985.78,-1113.62 9985.78,-1099.72"/>
<polygon fill="black" stroke="black" points="9989.28,-1099.71 9985.78,-1089.71 9982.28,-1099.71 9989.28,-1099.71"/>
<text text-anchor="middle" x="10002.18" y="-1111.8" font-family="Times,serif" font-size="14.00">d := 1</text>
</g>
<!-- L402 -->
<g id="node47" class="node">
<title>L402</title>
<ellipse fill="none" stroke="black" cx="9985.78" cy="-963.6" rx="445" ry="18"/>
<text text-anchor="middle" x="9985.78" y="-959.4" font-family="Times,serif" font-size="14.00">[{a=Odd, b=Odd, c=Even, d=Odd, w=Even, x=Odd, y=Odd, z=Even, ww=Even, xx=Odd, yy=Even, zz=Even}]</text>
</g>
<!-- L401&#45;&gt;L402 -->
<g id="edge56" class="edge">
<title>L401&#45;&gt;L402</title>
<path fill="none" stroke="black" d="M9985.78,-1053.57C9985.78,-1036.98 9985.78,-1011.48 9985.78,-992.03"/>
<polygon fill="black" stroke="black" points="9989.28,-991.94 9985.78,-981.94 9982.28,-991.94 9989.28,-991.94"/>
<text text-anchor="middle" x="10001.78" y="-1013.4" font-family="Times,serif" font-size="14.00">c := 0</text>
</g>
<!-- L403 -->
<g id="node48" class="node">
<title>L403</title>
<ellipse fill="none" stroke="black" cx="9988.78" cy="-874.8" rx="448.43" ry="18"/>
<text text-anchor="middle" x="9988.78" y="-870.6" font-family="Times,serif" font-size="14.00">[{a=Odd, b=Even, c=Even, d=Odd, w=Even, x=Odd, y=Odd, z=Even, ww=Even, xx=Odd, yy=Even, zz=Even}]</text>
</g>
<!-- L402&#45;&gt;L403 -->
<g id="edge57" class="edge">
<title>L402&#45;&gt;L403</title>
<path fill="none" stroke="black" d="M9986.38,-945.45C9986.8,-933.32 9987.37,-916.82 9987.85,-902.92"/>
<polygon fill="black" stroke="black" points="9991.34,-903.03 9988.19,-892.91 9984.35,-902.79 9991.34,-903.03"/>
<text text-anchor="middle" x="10003.18" y="-915" font-family="Times,serif" font-size="14.00">b := 0</text>
</g>
<!-- L403&#45;&gt;L30 -->
<g id="edge58" class="edge">
<title>L403&#45;&gt;L30</title>
<path fill="none" stroke="black" d="M9888.11,-857.26C9807.85,-844.9 9692.45,-828.99 9590.78,-822 9433.13,-811.16 8921.08,-803.67 8297.73,-798.5"/>
<polygon fill="black" stroke="black" points="8297.66,-795 8287.63,-798.42 8297.6,-802 8297.66,-795"/>
<text text-anchor="middle" x="9770.78" y="-826.2" font-family="Times,serif" font-size="14.00">a := 0</text>
</g>
</g>
</svg>
